<svg width="400" height="600" viewBox="0 0 400 600" fill="none" xmlns="http://www.w3.org/2000/svg">
<rect width="400" height="600" fill="#F1F1F1"/>
<g clip-path="url(#clip0_150_20)">
<rect x="112" y="241.258" width="145" height="120" rx="10" transform="rotate(-6.43757 112 241.258)" fill="#A8A8A8"/>
<path d="M125.83 256.805C125.521 254.061 127.494 251.586 130.238 251.276L239.545 238.943C242.289 238.633 244.764 240.607 245.074 243.351L253.483 317.878L134.239 331.332L125.83 256.805Z" fill="#F1F1F1"/>
<path d="M169.225 276.91C170.951 274.615 174.251 274.243 176.445 276.095L226.628 318.457C229.981 321.287 228.323 326.755 223.964 327.247L134.299 337.364C129.939 337.856 127.105 332.895 129.743 329.389L169.225 276.91Z" fill="#A8A8A8"/>
<path d="M211.656 287.208C213.379 284.917 216.672 284.541 218.867 286.385L259.776 320.749C262.967 323.43 261.67 328.609 257.592 329.47L178.229 346.221C173.709 347.175 170.423 342.014 173.2 338.323L211.656 287.208Z" fill="#A8A8A8"/>
</g>
<g clip-path="url(#clip1_150_20)">
<rect x="143" y="255" width="145" height="120" rx="10" fill="#A8A8A8"/>
<path d="M155 272C155 269.239 157.239 267 160 267H270C272.761 267 275 269.239 275 272V347H155V272Z" fill="#F1F1F1"/>
<rect x="241" y="272" width="29" height="29" rx="14.5" fill="#A8A8A8"/>
<path d="M195.867 296.843C197.839 294.756 201.161 294.756 203.133 296.843L248.25 344.565C251.264 347.753 249.004 353 244.617 353H154.383C149.996 353 147.736 347.753 150.75 344.565L195.867 296.843Z" fill="#A8A8A8"/>
<path d="M236.876 311.834C238.845 309.751 242.159 309.747 244.134 311.825L280.931 350.559C283.802 353.581 281.933 358.582 277.784 358.98L197.043 366.727C192.444 367.168 189.758 361.672 192.932 358.315L236.876 311.834Z" fill="#A8A8A8"/>
</g>
<defs>
<clipPath id="clip0_150_20">
<rect width="145" height="120" fill="white" transform="translate(112 241.258) rotate(-6.43757)"/>
</clipPath>
<clipPath id="clip1_150_20">
<rect width="145" height="120" fill="white" transform="translate(143 255)"/>
</clipPath>
</defs>
</svg>
